# xmcd
#
# Track frame offsets:
# 150
# 24490
# 37385
# 55805
# 67922
# 80480
# 96535
# 116102
# 134902
# 147065
# 158837
# 170237
# 186757
# 211082
# 228640
# 241790
# 255712
# 269120
# 283305
# 298490
# 308970
# 313312
# 319627
#
# Disc length: 4597 seconds
#
#
# Revision: 5
# Processed by: cddbd v1.5.1PL0 Copyright (c) Steve Scherf et al.
# Submitted via: FreeRIP 2.93 
#
DISCID=7811f317
DTITLE=Parton Dolly - Heartsongs
DYEAR=1994
DGENRE=country
TTITLE0=Heartsong
TTITLE1=I'm Thinking Tonight Of My Blue Eyes
TTITLE2=Mary Of The Wild Moor
TTITLE3=In The Pines
TTITLE4=My Blue Tears
TTITLE5=Applejack
TTITLE6=Coat Of Many Colors
TTITLE7=Smoky Mountain Memories
TTITLE8=Night Train To Memphis
TTITLE9=What A Friend We Have In Jesus
TTITLE10=Hold Fast To The Right
TTITLE11=Walter Henry Hagan
TTITLE12=Barbara Allen
TTITLE13=Brave Little Soldier
TTITLE14=To Daddy
TTITLE15=True Blue
TTITLE16=Longer Than Always
TTITLE17=Wayfaring Stranger
TTITLE18=My Tennessee Mountain Home
TTITLE19=Heartsong
TTITLE20=Cas Walker Theme
TTITLE21=Black Draught Theme
TTITLE22=PMS Blues
EXTD=UPC 074646612323\nmore info\nMillenniumMusicProjectFormat, syntax as follows:\nTitle{Subtitle}[info](Lyricist;Composer;Date,Artist,Location)[info]\ncorrections to: windking3@yahoo.com
EXTT0=
EXTT1=
EXTT2=
EXTT3=
EXTT4=
EXTT5=
EXTT6=
EXTT7=
EXTT8=
EXTT9=
EXTT10=
EXTT11=
EXTT12=
EXTT13=
EXTT14=
EXTT15=
EXTT16=
EXTT17=
EXTT18=
EXTT19=
EXTT20=
EXTT21=
EXTT22=
PLAYORDER=
